<svg width="340.78mm" height="329.79mm" version="1.1" viewBox="0 0 340.78 329.79" xmlns="http://www.w3.org/2000/svg">
 <g transform="translate(112.18 3.8782)">
  <g transform="matrix(.35269 0 0 .35269 -112.18 -3.9222)">
   <path d="m77.922 841.7h405.2v-31.176h-405.2c-25.82 0-46.754-20.934-46.754-46.754v-685.73c0-25.828 20.934-46.754 46.754-46.754h685.73c25.832 0 46.754 20.926 46.754 46.754v358.45h31.176v-358.45c-0.05078-43.016-34.91-77.871-77.93-77.922h-685.73c-43.008 0.050781-77.867 34.906-77.922 77.922v685.73c0.054688 43.016 34.914 77.871 77.922 77.93z"/>
   <path d="m62.344 62.469h31.164v31.164h-31.164z"/>
   <path d="m124.68 62.469h31.176v31.164h-31.176z"/>
   <path d="m187.02 62.469h31.172v31.164h-31.172z"/>
   <path d="m62.344 124.8h716.89v31.176h-716.89z"/>
   <path d="m222.75 191.71-39.586 39.586c-33.461-22.152-78.27-15.355-103.66 15.723-25.391 31.074-23.113 76.34 5.2617 104.71 28.371 28.383 73.641 30.66 104.72 5.2656 31.074-25.391 37.875-70.207 15.719-103.66l39.582-39.586zm-82.496 151.28c-25.816 0-46.75-20.93-46.75-46.75 0-25.824 20.934-46.75 46.75-46.75 6.9531 0.0234 13.793 1.6172 20.031 4.668l-31.043 31.047 22.031 22.039 31.066-31.027c3.0508 6.2344 4.6484 13.074 4.6719 20.023 0 25.82-20.926 46.75-46.758 46.75z"/>
   <path d="m264.94 249.48h264.93v31.164h-264.93z"/>
   <path d="m264.94 311.82h109.09v31.164h-109.09z"/>
   <path d="m405.2 311.82h218.18v31.164h-218.18z"/>
   <path d="m561.05 249.48h155.85v31.164h-155.85z"/>
   <path d="m222.75 378.72-39.586 39.586c-33.461-22.152-78.27-15.355-103.66 15.723-25.391 31.078-23.113 76.34 5.2617 104.72 28.371 28.375 73.641 30.652 104.72 5.2578 31.074-25.395 37.875-70.195 15.719-103.66l39.582-39.586zm-82.496 151.28c-25.816 0-46.75-20.934-46.75-46.754 0-25.824 20.934-46.758 46.75-46.758 6.9531 0.0273 13.793 1.625 20.031 4.6758l-31.043 31.055 22.031 22.031 31.066-31.031c3.0508 6.2383 4.6484 13.078 4.6719 20.027 0 25.82-20.926 46.754-46.758 46.754z"/>
   <path d="m264.94 436.49h264.93v31.172h-264.93z"/>
   <path d="m264.94 498.84h109.09v31.168h-109.09z"/>
   <path d="m405.2 498.84h124.67v31.168h-124.67z"/>
   <path d="m561.05 436.49h62.336v31.172h-62.336z"/>
   <path d="m222.75 565.74-39.586 39.586c-33.461-22.152-78.27-15.355-103.66 15.723-25.391 31.078-23.113 76.34 5.2617 104.72 28.371 28.379 73.641 30.648 104.72 5.2578 31.074-25.395 37.875-70.199 15.719-103.66l39.582-39.582zm-82.496 151.28c-25.816 0-46.75-20.934-46.75-46.754 0-25.824 20.934-46.754 46.75-46.754 6.9531 0.0234 13.793 1.6172 20.031 4.6719l-31.043 31.055 22.031 22.031 31.066-31.031c3.0508 6.2383 4.6484 13.082 4.6719 20.027 0 25.82-20.926 46.754-46.758 46.754z"/>
   <path d="m264.94 623.51h202.6v31.176h-202.6z"/>
   <path d="m264.94 685.85h109.09v31.168h-109.09z"/>
   <path d="m405.2 685.85h62.336v31.168h-62.336z"/>
   <path d="m732.48 935.21c129.11 0 233.77-104.67 233.77-233.77 0-129.11-104.65-233.77-233.77-233.77-129.11 0-233.77 104.66-233.77 233.77 0.15234 129.04 104.72 233.62 233.77 233.77zm0-436.38c111.89 0 202.6 90.707 202.6 202.6s-90.715 202.6-202.6 202.6c-111.9 0-202.61-90.703-202.61-202.6 0.13281-111.84 90.762-202.48 202.61-202.6z"/>
   <path d="m637.42 710.05-27.898 13.93 31.172 62.34c2.2344 4.4844 6.5 7.6211 11.449 8.4219 0.80469 0.125 1.6094 0.1914 2.418 0.20312 4.1289 0 8.0938-1.6445 11.023-4.5664l187.01-187.02-22.031-22.039-171.73 171.73z"/>
  </g>
 </g>
</svg>
