<svg version="1.1" viewBox="0 0 548.17 475.09" xmlns="http://www.w3.org/2000/svg">
 <g transform="translate(0,-36.543)">
  <path d="m534.75 49.965c-8.945-8.945-19.694-13.422-32.261-13.422h-456.81c-12.562 0-23.313 4.477-32.264 13.422-8.946 8.948-13.417 19.698-13.417 32.261v310.63c0 12.566 4.471 23.315 13.417 32.265 8.951 8.945 19.702 13.414 32.264 13.414h155.32c0 7.231-1.524 14.661-4.57 22.269-3.044 7.614-6.09 14.273-9.136 19.981-3.042 5.715-4.565 9.897-4.565 12.56 0 4.948 1.807 9.24 5.424 12.847 3.615 3.621 7.898 5.435 12.847 5.435h146.18c4.949 0 9.233-1.813 12.848-5.435 3.62-3.606 5.427-7.898 5.427-12.847 0-2.468-1.526-6.611-4.571-12.415-3.046-5.801-6.092-12.566-9.134-20.267-3.046-7.71-4.569-15.085-4.569-22.128h155.32c12.56 0 23.309-4.469 32.254-13.414 8.949-8.949 13.422-19.698 13.422-32.265v-310.63c3e-3 -12.563-4.474-23.313-13.423-32.261zm-23.123 269.8c0 2.475-0.903 4.613-2.711 6.424-1.81 1.804-3.952 2.707-6.427 2.707h-456.81c-2.473 0-4.615-0.903-6.423-2.707-1.807-1.817-2.712-3.949-2.712-6.424v-237.54c0-2.475 0.902-4.615 2.712-6.423 1.809-1.805 3.951-2.712 6.423-2.712h456.82c2.471 0 4.617 0.904 6.42 2.712 1.808 1.809 2.711 3.949 2.711 6.423z"/>
 </g>
</svg>
