<svg width="15.081mm" height="15.081mm" version="1.1" viewBox="0 0 15.081 15.081" xmlns="http://www.w3.org/2000/svg">
 <g transform="translate(-81.662 -128.53)">
  <g transform="matrix(.26458 0 0 .26458 81.662 128.53)">
   <path d="m49.179 38.5-5.596 8.04-3.949-3.241c-0.426-0.351-1.057-0.288-1.407 0.138-0.351 0.427-0.289 1.058 0.139 1.407l4.786 3.929c0.179 0.148 0.404 0.227 0.634 0.227 0.045 0 0.091-3e-3 0.137-0.01 0.276-0.038 0.524-0.19 0.684-0.419l6.214-8.929c0.315-0.453 0.204-1.076-0.25-1.392-0.454-0.317-1.076-0.204-1.392 0.25z"/>
   <path d="m54 35.705v-23.529c0-6.714-5.462-12.176-12.176-12.176h-29.648c-6.714 0-12.176 5.462-12.176 12.176v29.648c0 6.714 5.462 12.176 12.176 12.176h23.529c2.253 1.872 5.144 3 8.295 3 7.168 0 13-5.832 13-13 0-3.151-1.128-6.042-3-8.295zm-41.824 16.295c-5.611 0-10.176-4.564-10.176-10.176v-29.648c0-5.612 4.565-10.176 10.176-10.176h29.648c5.611 0 10.176 4.564 10.176 10.176v21.592c-0.075-0.059-0.155-0.109-0.231-0.166-0.21-0.158-0.42-0.315-0.64-0.46-0.023-0.015-0.048-0.028-0.071-0.043-0.514-0.334-1.055-0.628-1.616-0.888-0.076-0.035-0.15-0.075-0.226-0.109-0.22-0.097-0.445-0.18-0.671-0.265-0.143-0.054-0.286-0.109-0.431-0.158-0.207-0.069-0.416-0.13-0.627-0.189-0.179-0.05-0.359-0.097-0.54-0.139-0.191-0.044-0.381-0.087-0.575-0.123-0.23-0.043-0.462-0.076-0.695-0.106-0.156-0.02-0.311-0.045-0.469-0.06-0.4-0.039-0.803-0.062-1.208-0.062-6.134 0-11.277 4.276-12.637 10h-4.363c-0.552 0-1 0.447-1 1s0.448 1 1 1h4.051c-0.026 0.331-0.051 0.663-0.051 1 0 0.405 0.024 0.808 0.061 1.208 0.015 0.159 0.039 0.314 0.06 0.471 0.03 0.231 0.063 0.462 0.106 0.69 0.036 0.195 0.079 0.388 0.124 0.58 0.042 0.179 0.088 0.356 0.137 0.533 0.06 0.214 0.121 0.426 0.192 0.635 0.047 0.141 0.101 0.279 0.153 0.418 0.086 0.23 0.171 0.459 0.269 0.683 0.029 0.066 0.064 0.13 0.094 0.196 0.267 0.58 0.571 1.14 0.918 1.67 9e-3 0.014 0.017 0.029 0.026 0.042 0.146 0.221 0.304 0.432 0.462 0.644 0.057 0.076 0.107 0.155 0.165 0.23h-21.591zm31.824 3c-2.821 0-5.39-1.077-7.339-2.83-0.242-0.217-0.473-0.443-0.693-0.679-0.049-0.052-0.096-0.105-0.144-0.158-0.209-0.233-0.407-0.473-0.595-0.721-0.043-0.057-0.087-0.114-0.129-0.172-0.185-0.256-0.359-0.519-0.521-0.789-0.033-0.054-0.067-0.107-0.099-0.163-0.164-0.283-0.313-0.573-0.451-0.869-0.022-0.047-0.046-0.092-0.067-0.14-0.139-0.309-0.261-0.625-0.37-0.946-0.013-0.04-0.03-0.078-0.043-0.117-0.107-0.326-0.196-0.659-0.273-0.995-9e-3 -0.039-0.022-0.077-0.03-0.117-0.072-0.331-0.123-0.667-0.163-1.005-6e-3 -0.047-0.016-0.093-0.021-0.141-0.041-0.382-0.062-0.768-0.062-1.158 0-6.065 4.935-11 11-11 0.39 0 0.777 0.021 1.161 0.063 0.045 5e-3 0.088 0.015 0.133 0.021 0.34 0.041 0.679 0.093 1.012 0.165 0.038 8e-3 0.074 0.021 0.112 0.029 0.338 0.077 0.672 0.166 1 0.274 0.037 0.012 0.073 0.027 0.11 0.04 0.324 0.11 0.643 0.234 0.955 0.374 0.044 0.02 0.087 0.043 0.131 0.063 0.299 0.139 0.592 0.29 0.878 0.455 0.052 0.03 0.103 0.063 0.154 0.094 0.273 0.165 0.539 0.339 0.798 0.527 0.055 0.04 0.109 0.081 0.163 0.122 0.252 0.19 0.496 0.391 0.732 0.603 0.05 0.045 0.1 0.089 0.148 0.135 0.239 0.223 0.469 0.458 0.69 0.704 1.749 1.947 2.823 4.513 2.823 7.331 0 6.065-4.935 11-11 11z"/>
   <path d="m27 14h18c0.552 0 1-0.447 1-1s-0.448-1-1-1h-18c-0.552 0-1 0.447-1 1s0.448 1 1 1z"/>
   <path d="m27 28h18c0.552 0 1-0.447 1-1s-0.448-1-1-1h-18c-0.552 0-1 0.447-1 1s0.448 1 1 1z"/>
   <path d="m19.169 7.35-6.248 7.288-3.821-2.867c-0.442-0.331-1.069-0.242-1.4 0.2-0.332 0.441-0.242 1.068 0.2 1.399l4.571 3.429c0.18 0.135 0.39 0.2 0.6 0.2 0.283 0 0.563-0.119 0.76-0.35l6.857-8c0.359-0.419 0.311-1.05-0.108-1.409-0.418-0.358-1.051-0.31-1.411 0.11z"/>
   <path d="m19.169 21.35-6.248 7.288-3.821-2.867c-0.442-0.331-1.069-0.242-1.4 0.2-0.332 0.441-0.242 1.068 0.2 1.399l4.571 3.429c0.18 0.135 0.39 0.2 0.6 0.2 0.283 0 0.563-0.119 0.76-0.35l6.857-8c0.359-0.419 0.311-1.05-0.108-1.409-0.418-0.358-1.051-0.31-1.411 0.11z"/>
   <path d="m19.169 36.35-6.248 7.287-3.821-2.866c-0.442-0.33-1.069-0.242-1.4 0.2-0.332 0.441-0.242 1.068 0.2 1.399l4.571 3.429c0.18 0.135 0.39 0.2 0.6 0.2 0.283 0 0.563-0.119 0.76-0.35l6.857-7.999c0.359-0.419 0.311-1.05-0.108-1.409-0.418-0.359-1.051-0.311-1.411 0.109z"/>
  </g>
 </g>
</svg>
