<svg width="163.05mm" height="149.27mm" version="1.1" viewBox="0 0 163.05 149.27" xmlns="http://www.w3.org/2000/svg">
 <g transform="translate(-15.993 -28.931)">
  <g transform="matrix(.35254 0 0 .35254 15.994 29.32)">
   <path d="m412.9-1.1055h-167.62c-27.551 0-50.074 22.824-50.074 50.371v44.516c0 6.8984 5.5938 12.488 12.492 12.488 6.8984 0 12.488-5.5898 12.488-12.488v-44.516c0.03515-13.891 11.203-25.191 25.094-25.391h167.62c13.777 0 24.617 11.617 24.617 25.391v322.98c0.16406 13.691-10.801 24.922-24.492 25.082h-167.74c-13.836-0.0508-25.039-11.25-25.098-25.082v-43.586c0-6.9024-5.5898-12.492-12.488-12.492-6.8984 0-12.492 5.5898-12.492 12.492v43.586c0.0742 27.625 22.449 49.996 50.074 50.062h167.62c27.496-0.10156 49.707-22.484 49.598-49.984v-323.06c0-27.547-22.047-50.371-49.598-50.371z"/>
   <path d="m42.871 223.72h295.6c6.8984 0 12.492-5.5938 12.492-12.492 0-6.8945-5.5938-12.488-12.492-12.488h-298.38l64.082-74.074c4.5195-5.2539 3.957-13.168-1.2461-17.734-5.1914-4.5391-13.078-4.0117-17.613 1.1758v8e-3l-80.773 93.035c-2.9766 2.4492-4.6523 6.1367-4.543 9.9844 0.11719 3.8555 2.0078 7.4414 5.1289 9.707l80.781 80.781c4.8789 4.8789 12.789 4.8789 17.66 0 4.8164-4.7266 4.8906-12.453 0.16797-17.27-0.0547-0.0508-0.10938-0.10547-0.16797-0.16015z"/>
  </g>
 </g>
</svg>
