<svg width="135.47mm" height="135.47mm" version="1.1" viewBox="0 0 135.47 135.47" xmlns="http://www.w3.org/2000/svg">
 <g transform="translate(9.525 -55.487)">
  <g transform="matrix(2.2578 0 0 2.2578 -9.525 55.487)">
   <path d="m55.5 60h-51c-2.481 0-4.5-2.019-4.5-4.5v-51c0-2.481 2.019-4.5 4.5-4.5h51c2.481 0 4.5 2.019 4.5 4.5v51c0 2.481-2.019 4.5-4.5 4.5zm-51-58c-1.378 0-2.5 1.121-2.5 2.5v51c0 1.379 1.122 2.5 2.5 2.5h51c1.379 0 2.5-1.121 2.5-2.5v-51c0-1.379-1.122-2.5-2.5-2.5z"/>
   <path d="m9 10h-4c-0.552 0-1-0.447-1-1v-4c0-0.553 0.448-1 1-1h4c0.552 0 1 0.447 1 1v4c0 0.553-0.448 1-1 1zm-3-2h2v-2h-2z"/>
   <path d="m17 10h-4c-0.552 0-1-0.447-1-1v-4c0-0.553 0.448-1 1-1h4c0.552 0 1 0.447 1 1v4c0 0.553-0.448 1-1 1zm-3-2h2v-2h-2z"/>
   <path d="m25 10h-4c-0.552 0-1-0.447-1-1v-4c0-0.553 0.448-1 1-1h4c0.552 0 1 0.447 1 1v4c0 0.553-0.448 1-1 1zm-3-2h2v-2h-2z"/>
   <path d="m59 14h-58c-0.552 0-1-0.447-1-1v-8.5c0-2.481 2.019-4.5 4.5-4.5h51c2.481 0 4.5 2.019 4.5 4.5v8.5c0 0.553-0.448 1-1 1zm-57-2h56v-7.5c0-1.379-1.122-2.5-2.5-2.5h-51c-1.378 0-2.5 1.121-2.5 2.5z"/>
   <path d="m55 32h-50c-0.552 0-1-0.447-1-1v-14c0-0.553 0.448-1 1-1h50c0.552 0 1 0.447 1 1v14c0 0.553-0.448 1-1 1zm-49-2h48v-12h-48z"/>
   <path d="m26 32c-0.256 0-0.512-0.098-0.707-0.293l-5.293-5.293-5.293 5.293c-0.39 0.391-1.024 0.391-1.414 0-0.391-0.391-0.391-1.023 0-1.414l6-6c0.39-0.391 1.024-0.391 1.414 0l6 6c0.391 0.391 0.391 1.023 0 1.414-0.195 0.195-0.451 0.293-0.707 0.293z"/>
   <path d="m47 32c-0.256 0-0.512-0.098-0.707-0.293l-5.293-5.293-5.293 5.293c-0.39 0.391-1.024 0.391-1.414 0-0.391-0.391-0.391-1.023 0-1.414l6-6c0.39-0.391 1.024-0.391 1.414 0l6 6c0.391 0.391 0.391 1.023 0 1.414-0.195 0.195-0.451 0.293-0.707 0.293z"/>
   <path d="m37.494 29.506c-0.256 0-0.512-0.098-0.708-0.293l-6.748-6.76-5.922 6.588c-0.369 0.412-1.002 0.443-1.412 0.074-0.411-0.369-0.444-1.001-0.075-1.412l6.628-7.372c0.184-0.204 0.443-0.323 0.718-0.331 0.274-0.01 0.54 0.099 0.734 0.293l7.494 7.506c0.39 0.392 0.39 1.024-1e-3 1.415-0.196 0.194-0.452 0.292-0.708 0.292z"/>
   <path d="m9 42h-4c-0.552 0-1-0.447-1-1v-4c0-0.553 0.448-1 1-1h4c0.552 0 1 0.447 1 1v4c0 0.553-0.448 1-1 1zm-3-2h2v-2h-2z"/>
   <path d="m55 56h-22c-0.552 0-1-0.447-1-1v-20c0-0.553 0.448-1 1-1h22c0.552 0 1 0.447 1 1v20c0 0.553-0.448 1-1 1zm-21-2h20v-18h-20z"/>
   <path d="m44 56c-0.256 0-0.512-0.098-0.707-0.293l-5.293-5.293-4.293 4.293c-0.39 0.391-1.024 0.391-1.414 0-0.391-0.391-0.391-1.023 0-1.414l5-5c0.39-0.391 1.024-0.391 1.414 0l6 6c0.391 0.391 0.391 1.023 0 1.414-0.195 0.195-0.451 0.293-0.707 0.293z"/>
   <path d="m40 46c-2.206 0-4-1.794-4-4s1.794-4 4-4 4 1.794 4 4-1.794 4-4 4zm0-6c-1.103 0-2 0.897-2 2s0.897 2 2 2 2-0.897 2-2-0.897-2-2-2z"/>
   <path d="m55 54c-0.256 0-0.512-0.098-0.707-0.293l-6.262-6.262-5.505 6.002c-0.374 0.406-1.006 0.434-1.413 0.062-0.407-0.374-0.434-1.006-0.061-1.413l6.211-6.771c0.185-0.201 0.443-0.318 0.716-0.324 0.271 0.01 0.536 0.101 0.729 0.293l7 7c0.391 0.391 0.391 1.023 0 1.414-0.196 0.194-0.452 0.292-0.708 0.292z"/>
   <path d="m23 38h-9c-0.552 0-1-0.447-1-1s0.448-1 1-1h9c0.552 0 1 0.447 1 1s-0.448 1-1 1z"/>
   <path d="m28 38h-1c-0.552 0-1-0.447-1-1s0.448-1 1-1h1c0.552 0 1 0.447 1 1s-0.448 1-1 1z"/>
   <path d="m28 42h-9c-0.552 0-1-0.447-1-1s0.448-1 1-1h9c0.552 0 1 0.447 1 1s-0.448 1-1 1z"/>
   <path d="m15 42h-1c-0.552 0-1-0.447-1-1s0.448-1 1-1h1c0.552 0 1 0.447 1 1s-0.448 1-1 1z"/>
   <path d="m9 54h-4c-0.552 0-1-0.447-1-1v-4c0-0.553 0.448-1 1-1h4c0.552 0 1 0.447 1 1v4c0 0.553-0.448 1-1 1zm-3-2h2v-2h-2z"/>
   <path d="m23 50h-9c-0.552 0-1-0.447-1-1s0.448-1 1-1h9c0.552 0 1 0.447 1 1s-0.448 1-1 1z"/>
   <path d="m28 50h-1c-0.552 0-1-0.447-1-1s0.448-1 1-1h1c0.552 0 1 0.447 1 1s-0.448 1-1 1z"/>
   <path d="m28 54h-9c-0.552 0-1-0.447-1-1s0.448-1 1-1h9c0.552 0 1 0.447 1 1s-0.448 1-1 1z"/>
   <path d="m15 54h-1c-0.552 0-1-0.447-1-1s0.448-1 1-1h1c0.552 0 1 0.447 1 1s-0.448 1-1 1z"/>
  </g>
 </g>
</svg>
