<svg version="1.1" viewBox="0 0 384 512" xmlns="http://www.w3.org/2000/svg">
 <g transform="translate(-64)">
  <path d="m394.67 0h-277.33c-29.397 0-53.333 23.936-53.333 53.333v405.33c0 29.398 23.936 53.334 53.333 53.334h277.33c29.398 0 53.334-23.936 53.334-53.333v-405.33c0-29.397-23.936-53.333-53.333-53.333zm-138.67 480c-11.755 0-21.333-9.579-21.333-21.333s9.579-21.333 21.333-21.333 21.333 9.579 21.333 21.333-9.578 21.333-21.333 21.333zm149.33-64c0 5.888-4.779 10.667-10.667 10.667h-277.33c-5.888 0-10.667-4.779-10.667-10.667v-362.67c0-5.888 4.779-10.667 10.667-10.667h277.33c5.888 0 10.667 4.779 10.667 10.667z"/>
 </g>
</svg>
