<svg width="158.04mm" height="180.62mm" version="1.1" viewBox="0 0 158.04 180.62" xmlns="http://www.w3.org/2000/svg">
 <g transform="translate(-45.71 -86.582)">
  <path d="m156.13 171.95c-26.26 0-47.625 21.365-47.625 47.625 0 26.26 21.365 47.625 47.625 47.625s47.625-21.365 47.625-47.625c0-26.26-21.365-47.625-47.625-47.625zm0 81.139c-18.48 0-33.514-15.034-33.514-33.514 0-18.48 15.034-33.514 33.514-33.514 18.479 0 33.514 15.034 33.514 33.514 0 18.479-15.034 33.514-33.514 33.514zm-51.613 0h-37.64c-3.8902 0-7.0556-3.1654-7.0556-7.0556v-124.18c0-3.8902 3.1654-7.0556 7.0556-7.0556h11.642v27.869h70.556v-27.869h11.289c3.8902 0 7.0556 3.1654 7.0556 7.0556v37.2c4.9334 0.91916 9.6642 2.4254 14.111 4.4483v-41.648c0-11.672-9.4947-21.167-21.167-21.167h-26.609c-2.9132-8.2131-10.76-14.111-19.958-14.111-9.1984 0-17.045 5.898-19.958 14.111h-26.961c-11.672 0-21.167 9.4947-21.167 21.167v124.18c0 11.672 9.4947 21.167 21.167 21.167h50.292c-4.9044-4.0197-9.1791-8.7822-12.652-14.111zm2.2242-138.29v-7.0556c0-3.8902 3.1654-7.0556 7.0556-7.0556s7.0556 3.1654 7.0556 7.0556v7.0556h14.111v13.758h-42.333v-13.758zm56.092 97.719h11.994v14.111h-26.106v-30.692h14.111z" stroke-width=".35278"/>
 </g>
</svg>
